<svg width="143" height="176" viewBox="0 0 143 176" fill="none" xmlns="http://www.w3.org/2000/svg">
<g clip-path="url(#clip0_442_24)">
<path d="M53 30C53 27.3478 54.0536 24.8043 55.9289 22.9289C57.8043 21.0536 60.3478 20 63 20H88L98 30H123C125.652 30 128.196 31.0536 130.071 32.9289C131.946 34.8043 133 37.3478 133 40V70C133 72.6522 131.946 75.1957 130.071 77.0711C128.196 78.9464 125.652 80 123 80H63C60.3478 80 57.8043 78.9464 55.9289 77.0711C54.0536 75.1957 53 72.6522 53 70V30Z" fill="#393E46"/>
<path d="M35 60C35 57.3478 36.0536 54.8043 37.9289 52.9289C39.8043 51.0536 42.3478 50 45 50H70L80 60H105C107.652 60 110.196 61.0536 112.071 62.9289C113.946 64.8043 115 67.3478 115 70V100C115 102.652 113.946 105.196 112.071 107.071C110.196 108.946 107.652 110 105 110H45C42.3478 110 39.8043 108.946 37.9289 107.071C36.0536 105.196 35 102.652 35 100V60Z" fill="#222831"/>
</g>
<g clip-path="url(#clip1_442_24)">
<path d="M31 68C31 65.3478 32.0536 62.8043 33.9289 60.9289C35.8043 59.0536 38.3478 58 41 58H66L76 68H101C103.652 68 106.196 69.0536 108.071 70.9289C109.946 72.8043 111 75.3478 111 78V108C111 110.652 109.946 113.196 108.071 115.071C106.196 116.946 103.652 118 101 118H41C38.3478 118 35.8043 116.946 33.9289 115.071C32.0536 113.196 31 110.652 31 108V68Z" fill="#393E46"/>
<path d="M16 98C16 95.3478 17.0536 92.8043 18.9289 90.9289C20.8043 89.0536 23.3478 88 26 88H51L61 98H86C88.6522 98 91.1957 99.0536 93.0711 100.929C94.9464 102.804 96 105.348 96 108V138C96 140.652 94.9464 143.196 93.0711 145.071C91.1957 146.946 88.6522 148 86 148H26C23.3478 148 20.8043 146.946 18.9289 145.071C17.0536 143.196 16 140.652 16 138V98Z" fill="#222831"/>
</g>
<path d="M10 106C10 103.348 11.0536 100.804 12.9289 98.9289C14.8043 97.0536 17.3478 96 20 96H45L55 106H80C82.6522 106 85.1957 107.054 87.0711 108.929C88.9464 110.804 90 113.348 90 116V146C90 148.652 88.9464 151.196 87.0711 153.071C85.1957 154.946 82.6522 156 80 156H20C17.3478 156 14.8043 154.946 12.9289 153.071C11.0536 151.196 10 148.652 10 146V106Z" fill="#393E46"/>
<defs>
<clipPath id="clip0_442_24">
<rect width="100" height="100" fill="white" transform="translate(43)"/>
</clipPath>
<clipPath id="clip1_442_24">
<rect width="100" height="100" fill="white" transform="translate(21 38)"/>
</clipPath>
</defs>
</svg>
